 <svg  version="1.0" xmlns="http://www.w3.org/2000/svg"  width="300.000000pt" height="300.000000pt" viewBox="0 0 300.000000 300.000000"  preserveAspectRatio="xMidYMid meet">  <g transform="translate(0.000000,300.000000) scale(0.100000,-0.100000)" fill="#ffffff" stroke="none"> <path d="M1340 2993 c-132 -21 -288 -57 -320 -73 -100 -51 -145 -191 -105 -324 26 -85 22 -96 -50 -160 -71 -63 -161 -190 -246 -351 -54 -100 -54 -100 -54 -190 0 -85 3 -96 37 -166 21 -42 57 -97 80 -124 26 -30 38 -50 30 -53 -26 -8 -10 -18 26 -15 l37 3 -32 -15 c-18 -8 -33 -17 -33 -20 0 -2 24 -2 53 0 l52 5 -42 -13 c-65 -19 -62 -28 8 -22 l64 5 -47 -17 c-60 -23 -70 -34 -21 -22 21 5 58 8 83 8 48 0 47 -2 -34 -34 -57 -23 -38 -29 34 -10 89 23 104 14 26 -15 -36 -13 -66 -27 -66 -31 0 -3 42 4 93 17 109 28 131 26 56 -5 -100 -41 -98 -40 -66 -40 15 -1 55 11 89 25 73 30 141 35 166 11 9 -10 11 -17 5 -17 -15 0 -145 -61 -140 -66 2 -3 34 5 71 17 77 23 92 21 41 -7 -48 -25 -44 -36 6 -19 53 19 56 19 34 -5 -15 -16 -15 -20 -3 -20 8 0 22 -8 30 -17 15 -18 81 -203 74 -210 -2 -2 -44 1 -94 7 -95 11 -228 48 -297 82 l-39 21 -57 -61 c-75 -79 -111 -133 -181 -269 -65 -126 -73 -173 -38 -211 12 -12 32 -22 45 -22 18 0 23 -4 18 -16 -5 -13 1 -14 33 -10 34 6 36 5 17 -5 -28 -15 -30 -32 -3 -25 11 3 29 9 41 12 21 6 21 6 -2 -25 -12 -17 -20 -33 -17 -36 3 -3 25 4 49 15 65 29 79 24 26 -10 -46 -29 -66 -51 -28 -31 25 14 121 51 121 48 0 -2 -27 -21 -60 -42 -33 -21 -60 -42 -60 -46 0 -4 38 13 85 37 47 25 85 43 85 41 0 -3 -32 -28 -70 -56 -39 -28 -70 -54 -70 -57 0 -4 10 0 23 8 57 37 160 90 153 80 -4 -7 -34 -30 -67 -53 -33 -22 -59 -43 -56 -45 7 -7 49 14 101 51 54 39 87 51 113 40 14 -5 8 -10 -24 -20 -44 -13 -137 -64 -131 -71 3 -2 40 11 84 30 44 18 95 36 114 40 28 5 23 1 -22 -19 -59 -26 -139 -73 -103 -60 11 4 58 22 105 39 103 40 144 51 135 36 -3 -5 -11 -10 -16 -10 -16 0 -170 -73 -164 -78 2 -3 57 16 120 43 64 26 118 45 120 43 3 -2 -38 -26 -91 -53 -52 -27 -100 -55 -106 -62 -19 -23 -1 -26 29 -5 52 37 253 130 253 117 0 -2 -45 -29 -101 -60 -55 -31 -98 -59 -96 -62 3 -2 60 23 127 57 205 103 225 104 59 5 -60 -37 -109 -69 -107 -71 2 -2 60 26 128 61 69 36 130 65 135 65 6 0 -36 -28 -93 -61 -56 -34 -101 -64 -99 -66 3 -2 47 19 99 47 102 54 125 61 109 33 -5 -10 -42 -33 -82 -53 -99 -47 -102 -70 -4 -25 101 46 114 44 40 -5 -70 -47 -68 -49 10 -15 65 29 77 27 44 -6 l-22 -22 31 6 c25 5 32 3 32 -9 0 -30 30 -71 60 -84 26 -11 28 -15 18 -28 -9 -11 -2 -9 27 5 68 35 94 37 43 4 -43 -28 -67 -51 -53 -51 3 0 24 12 47 26 50 32 178 87 185 80 3 -2 -15 -15 -39 -27 -52 -26 -160 -100 -154 -106 2 -2 69 34 148 80 79 46 158 92 177 101 38 20 36 33 -3 15 -44 -21 -41 -3 13 65 58 73 100 108 181 154 76 44 55 40 -48 -8 -47 -22 -87 -39 -89 -37 -2 2 53 34 122 71 68 37 127 71 131 77 3 6 -54 -20 -126 -56 -73 -36 -134 -64 -136 -62 -5 5 143 96 224 137 35 18 61 34 58 37 -8 8 -186 -79 -242 -118 -37 -25 -45 -28 -42 -13 2 11 54 44 143 90 77 41 137 74 133 74 -6 0 -221 -96 -273 -122 -14 -7 -17 -7 -10 0 6 6 71 42 145 81 74 39 129 71 122 71 -7 0 -31 -9 -53 -21 -23 -11 -38 -16 -34 -10 3 6 23 20 43 31 33 17 34 19 13 20 -23 0 -23 1 -8 18 20 22 96 193 133 300 99 286 -28 581 -311 716 -103 50 -191 68 -324 68 -98 0 -116 3 -132 19 -22 22 -24 42 -6 57 6 6 62 27 122 48 126 42 163 63 59 34 -115 -34 -123 -33 -40 4 129 58 198 123 231 217 32 89 15 151 -64 233 -100 104 -219 165 -366 186 -44 6 -88 17 -98 24 -12 10 -26 57 -47 167 -17 85 -35 164 -40 177 -10 22 -13 23 -60 15z m69 -175 c53 -240 37 -213 136 -227 176 -25 287 -73 374 -165 75 -80 114 -186 79 -213 -18 -13 -248 -107 -251 -102 -2 2 -13 20 -26 39 -13 19 -42 49 -65 67 -44 33 -123 69 -132 60 -8 -8 83 -413 101 -454 8 -18 18 -33 22 -34 5 0 67 -2 138 -3 212 -5 345 -56 470 -180 156 -155 209 -356 144 -544 -54 -158 -155 -250 -344 -314 -72 -25 -95 -37 -91 -48 3 -8 23 -73 44 -145 l39 -130 -56 -18 c-64 -21 -232 -57 -264 -57 -19 0 -27 18 -67 143 -24 78 -45 143 -46 145 -1 2 -26 -4 -55 -12 -138 -41 -505 4 -733 90 -128 48 -126 42 -76 160 72 169 99 217 118 209 143 -56 287 -85 439 -88 116 -2 124 -1 145 21 l23 23 -84 249 c-46 137 -92 258 -103 269 -13 15 -31 21 -61 21 -67 0 -164 28 -239 67 -371 195 -352 720 31 848 40 14 67 29 69 39 2 8 -13 89 -33 178 -20 90 -37 170 -38 178 -2 11 35 22 158 46 88 18 169 32 180 33 18 1 24 -16 54 -151z m-378 -110 c16 -75 29 -143 29 -151 0 -13 -86 -54 -95 -46 -7 8 -45 168 -45 192 0 36 72 187 77 162 2 -11 17 -82 34 -157z m559 -490 c0 -19 -18 -43 -25 -36 -9 9 4 48 16 48 5 0 9 -6 9 -12z m40 -3 c0 -13 -45 -95 -52 -95 -11 0 -11 2 12 54 10 25 24 46 30 46 5 0 10 -2 10 -5z m-1 -87 c-36 -72 -37 -73 -45 -66 -8 8 54 128 66 128 6 0 -4 -28 -21 -62z m351 43 c0 -6 -12 -23 -26 -38 -24 -27 -25 -27 -13 -3 20 41 39 62 39 41z m-1282 -63 c-11 -113 31 -277 83 -324 11 -9 19 -23 19 -30 0 -16 -81 -133 -92 -133 -16 -2 -76 95 -98 155 -28 81 -31 185 -6 234 22 43 90 150 95 150 2 0 1 -24 -1 -52z m1006 30 c23 -32 20 -51 -15 -113 l-31 -55 -26 31 -25 31 31 64 c18 35 36 64 41 64 6 0 17 -10 25 -22z m230 10 c-44 -73 -76 -118 -85 -118 -10 0 12 42 53 103 19 26 47 40 32 15z m-94 -83 c-36 -56 -60 -79 -60 -60 0 9 52 89 73 112 37 41 31 15 -13 -52z m-46 -2 c-32 -55 -53 -83 -66 -83 -7 0 5 22 58 108 28 43 34 21 8 -25z m-66 -43 c-22 -38 -45 -70 -49 -70 -14 0 -12 4 32 74 55 88 68 85 17 -4z m-898 -294 c0 -20 -93 -141 -98 -128 -3 10 85 142 95 142 2 0 3 -6 3 -14z m40 -26 c0 -12 -88 -134 -101 -138 -22 -8 -5 30 38 87 45 58 63 73 63 51z m30 -31 c0 -18 -84 -128 -98 -129 -15 0 -13 3 43 83 39 55 55 68 55 46z m78 -49 c-11 -25 -95 -129 -105 -129 -20 -1 -16 7 34 70 25 33 43 63 39 67 -4 4 -17 -7 -29 -23 -37 -51 -86 -101 -87 -87 0 12 38 66 83 119 18 21 21 21 44 6 13 -9 22 -19 21 -23z m32 -21 c0 -12 -75 -125 -89 -134 -5 -3 -12 -1 -16 5 -3 5 16 39 42 74 46 63 63 78 63 55z m50 -19 c0 -14 -90 -140 -101 -140 -18 0 -8 24 34 86 38 57 67 80 67 54z m50 -10 c0 -17 -102 -150 -111 -144 -11 6 -10 7 49 92 40 58 62 76 62 52z m40 -15 c0 -12 -94 -145 -103 -145 -13 0 -3 23 43 90 35 51 60 74 60 55z m60 0 c0 -7 -94 -140 -104 -147 -6 -4 -14 -4 -18 -2 -9 6 65 121 90 142 16 12 32 16 32 7z m40 -10 c0 -14 -91 -145 -101 -145 -15 0 -6 21 41 90 35 51 60 74 60 55z m110 -249 c45 -130 79 -244 76 -251 -3 -8 -24 -19 -46 -25 -67 -18 -81 -2 -129 142 -23 68 -41 132 -41 142 0 11 12 37 26 57 14 21 24 46 22 56 -3 13 -13 2 -33 -37 -19 -36 -30 -49 -33 -38 -2 9 16 46 39 83 23 36 39 69 35 72 -8 9 -31 -22 -58 -79 -22 -45 -38 -61 -38 -37 0 13 91 161 96 157 2 -2 40 -111 84 -242z m-576 -288 c-10 -18 -39 -82 -66 -143 -33 -76 -61 -122 -90 -152 -23 -24 -46 -43 -50 -43 -14 0 129 272 169 322 44 55 61 62 37 16z m1534 -160 c-8 -13 -34 -58 -57 -100 -24 -43 -47 -78 -52 -78 -10 0 51 128 83 173 23 33 47 37 26 5z m-110 -125 c-34 -73 -67 -127 -75 -120 -7 7 86 187 97 187 5 0 -5 -30 -22 -67z m-68 -53 c-28 -55 -55 -100 -60 -100 -15 0 -14 3 31 93 44 88 57 107 70 107 5 0 -14 -45 -41 -100z m-56 -21 c-28 -55 -49 -87 -51 -77 -4 17 35 103 69 151 38 53 29 19 -18 -74z m-1353 80 c12 -6 18 -17 15 -24 -11 -29 -81 -115 -93 -115 -7 0 -28 8 -48 17 l-35 17 57 58 c60 60 71 65 104 47z m1347 -6 c-42 -90 -68 -124 -68 -91 0 18 50 98 61 98 6 0 9 -3 7 -7z m-1288 -32 c0 -12 -91 -121 -101 -121 -16 0 -10 10 37 71 44 55 64 71 64 50z m-2 -75 c-42 -53 -68 -75 -68 -57 0 16 104 134 108 123 2 -6 -16 -36 -40 -66z m45 -7 c-49 -63 -61 -74 -70 -66 -8 8 99 137 109 131 4 -3 -13 -32 -39 -65z m87 44 c0 -3 -18 -30 -41 -59 -22 -29 -39 -59 -37 -66 3 -7 26 17 53 55 27 37 55 67 63 67 17 0 16 -2 -37 -78 -46 -63 -63 -72 -102 -52 -18 10 -16 15 29 75 40 55 72 81 72 58z m90 -25 c-1 -19 -103 -144 -107 -131 -4 12 87 143 99 143 5 0 8 -6 8 -12z m3 -78 c-45 -68 -53 -76 -66 -64 -9 9 93 145 104 139 5 -3 -12 -37 -38 -75z m97 56 c0 -7 -82 -126 -91 -131 -38 -24 -6 51 53 123 10 11 38 17 38 8z m57 -9 c-3 -8 -22 -39 -42 -71 -34 -54 -59 -76 -71 -63 -10 10 85 147 102 147 9 0 14 -6 11 -13z m378 -76 c-19 -39 -40 -71 -46 -71 -12 0 -15 -6 35 90 22 41 41 70 43 63 2 -6 -12 -43 -32 -82z m-337 57 c-9 -13 -30 -47 -47 -75 -28 -46 -51 -67 -51 -47 0 18 85 144 97 144 14 0 14 -3 1 -22z m62 10 c0 -19 -84 -137 -97 -138 -18 0 -16 7 9 49 50 84 88 123 88 89z m19 -60 c-45 -71 -66 -95 -74 -86 -10 9 85 148 100 148 10 0 1 -20 -26 -62z m50 -7 c-37 -65 -69 -96 -69 -68 0 14 43 81 73 115 38 41 36 22 -4 -47z m91 63 c0 -3 -16 -35 -36 -71 -34 -60 -57 -83 -71 -70 -6 6 65 128 81 139 13 9 26 10 26 2z m50 1 c0 -2 -16 -34 -36 -70 -35 -63 -50 -82 -60 -72 -7 6 76 147 87 147 5 0 9 -2 9 -5z m24 -62 c-45 -82 -49 -87 -63 -79 -7 5 -2 23 15 54 47 83 54 92 70 92 11 0 6 -17 -22 -67z m171 -154 l18 -46 -25 -45 c-15 -24 -35 -54 -45 -67 l-19 -23 -29 71 -28 71 31 60 c18 33 32 65 32 71 0 21 -21 -4 -47 -54 -14 -29 -28 -46 -30 -39 -3 6 11 41 31 76 20 35 36 73 36 83 -1 10 -17 -13 -37 -52 -20 -38 -38 -65 -40 -58 -2 6 15 49 38 94 l42 84 27 -90 c15 -50 35 -111 45 -136z m343 4 c-9 -10 -30 -46 -47 -79 -17 -34 -38 -67 -46 -74 -20 -17 -19 -7 6 43 44 87 71 127 87 127 14 0 14 -2 0 -17z m-85 -70 c-33 -64 -70 -109 -80 -99 -2 2 17 40 43 85 58 100 90 112 37 14z m-25 50 c-33 -75 -102 -172 -113 -161 -13 12 86 168 106 168 6 0 9 -3 7 -7z m-58 -7 c0 -8 -73 -130 -88 -148 -50 -59 -11 35 50 125 17 23 38 36 38 23z m-102 -92 c-23 -43 -49 -79 -57 -82 -20 -7 -12 11 44 98 25 39 49 70 52 67 2 -3 -15 -40 -39 -83z m-4 64 c-54 -88 -98 -148 -110 -148 -13 0 40 90 84 143 17 19 37 23 26 5z"/> <path d="M1074 2241 c-122 -75 -124 -237 -3 -345 67 -60 172 -96 185 -62 8 21 -44 217 -98 369 -23 63 -34 68 -84 38z m94 -146 c32 -115 62 -229 62 -239 0 -12 -31 -6 -74 14 -70 34 -82 83 -42 171 37 78 19 82 -22 5 -19 -36 -41 -66 -48 -66 -8 0 -14 5 -14 10 0 6 6 10 14 10 8 0 20 17 26 38 7 20 21 52 32 70 13 20 18 43 15 59 -6 30 2 58 13 46 4 -4 21 -57 38 -118z m-125 63 c-43 -65 -43 -65 -43 -46 0 18 56 98 69 98 5 0 -6 -24 -26 -52z m11 -43 c-21 -36 -42 -65 -46 -65 -9 0 12 44 49 103 41 65 38 32 -3 -38z m30 -7 c-15 -29 -29 -48 -31 -42 -4 12 47 107 54 101 2 -3 -8 -29 -23 -59z"/> <path d="M1699 1516 c-14 -15 127 -445 149 -453 23 -9 159 64 184 99 69 97 -15 302 -138 338 -47 13 -187 25 -195 16z m74 -68 c-15 -22 -29 -35 -31 -29 -5 15 38 82 49 76 5 -3 -3 -24 -18 -47z m67 37 c0 -2 -18 -33 -40 -67 -25 -40 -40 -56 -40 -43 0 24 56 115 70 115 6 0 10 -2 10 -5z m40 -13 c0 -14 -71 -122 -81 -122 -17 0 -9 20 27 75 33 50 54 68 54 47z m20 -44 c-11 -18 -28 -48 -37 -65 -16 -32 -33 -43 -33 -23 0 18 69 120 81 120 6 0 1 -15 -11 -32z m47 -1 c-13 -34 -81 -130 -84 -120 -4 11 34 87 60 121 13 16 30 16 24 -1z m57 -76 c40 -90 31 -166 -26 -205 -33 -23 -45 -20 -52 14 -3 17 -9 43 -12 59 -4 20 2 43 25 83 32 57 36 68 23 68 -4 0 -21 -25 -37 -55 -28 -51 -45 -68 -45 -45 0 15 80 140 90 140 4 0 19 -26 34 -59z m-178 -66 c-27 -21 -53 -20 -36 0 7 8 22 15 34 15 21 -1 21 -1 2 -15z m34 -24 c0 -5 -10 -11 -22 -15 -36 -9 -41 -7 -28 9 13 16 50 21 50 6z m20 -31 c0 -5 -11 -12 -25 -16 -39 -10 -29 -23 13 -18 31 4 34 3 19 -6 -18 -11 -18 -13 2 -27 25 -17 27 -45 5 -64 -24 -20 -45 -1 -65 59 -18 52 -15 61 21 75 23 8 30 8 30 -3z"/> <path d="M742 1730 c-33 -45 -44 -48 -16 -4 9 13 14 27 11 30 -8 9 -48 -58 -45 -75 2 -8 8 -16 13 -17 13 -4 78 83 73 98 -2 6 -18 -9 -36 -32z"/> <path d="M676 666 c-39 -48 -50 -82 -16 -51 25 23 64 84 58 91 -3 2 -22 -15 -42 -40z"/> <path d="M1765 1913 c-115 -37 -122 -40 -113 -48 7 -7 240 63 253 76 17 17 -27 8 -140 -28z"/> <path d="M1781 1879 c-97 -30 -108 -35 -98 -45 6 -7 178 44 191 57 19 18 -1 15 -93 -12z"/> <path d="M1032 1342 c-41 -15 -72 -32 -70 -37 4 -12 2 -12 90 21 64 24 95 45 66 43 -7 0 -46 -12 -86 -27z"/> <path d="M2035 211 c-6 -5 -73 -44 -150 -86 -77 -43 -143 -83 -147 -89 -14 -21 12 -17 44 7 18 13 83 50 143 81 61 31 121 65 135 76 23 18 24 20 5 20 -12 0 -25 -4 -30 -9z"/> <path d="M2026 150 c-26 -17 -89 -50 -140 -74 -84 -39 -115 -60 -104 -71 6 -6 274 133 288 150 23 28 5 25 -44 -5z"/> <path d="M1990 79 c-98 -50 -141 -79 -116 -79 17 0 246 121 246 130 0 14 -3 13 -130 -51z"/> <path d="M2122 84 c-13 -9 -53 -26 -89 -38 -37 -11 -68 -27 -71 -34 -4 -12 164 41 182 58 19 18 0 30 -22 14z"/> </g> </svg> 